HIERARCHY
ROOT hip
{
	OFFSET 0.000000 0.000000 0.000000 
	CHANNELS 6 Xposition Yposition Zposition Xrotation Zrotation Yrotation
	JOINT abdomen
	{
		OFFSET 0.000000 3.402643 0.000000 
		CHANNELS 3 Xrotation Zrotation Yrotation
		JOINT chest
		{
			OFFSET 0.000000 8.438565 -0.680529 
			CHANNELS 3 Xrotation Zrotation Yrotation
			JOINT neck
			{
				OFFSET 0.000000 10.207942 -0.272212 
				CHANNELS 3 Xrotation Zrotation Yrotation
				JOINT head
				{
					OFFSET 0.000000 3.130431 0.000000 
					CHANNELS 3 Xrotation Zrotation Yrotation
					End Site
					{
						OFFSET 0.000000 3.130435 0.000000 
					}
				}
			}
			JOINT lCollar
			{
				OFFSET 3.470700 6.669187 -0.816635 
				CHANNELS 3 Yrotation Zrotation Xrotation
				JOINT lShldr
				{
					OFFSET 3.198488 0.000000 0.000000 
					CHANNELS 3 Zrotation Yrotation Xrotation
					JOINT lForeArm
					{
						OFFSET 10.139888 0.000000 0.000000 
						CHANNELS 3 Yrotation Zrotation Xrotation
						JOINT lHand
						{
							OFFSET 8.370511 0.000000 0.000000 
							CHANNELS 3 Zrotation Yrotation Xrotation
							End Site
							{
								OFFSET 4.083176 0.000000 0.000000 
							}
						}
					}
				}
			}
			JOINT rCollar
			{
				OFFSET -3.470700 6.669187 -0.816635 
				CHANNELS 3 Yrotation Zrotation Xrotation
				JOINT rShldr
				{
					OFFSET -3.198488 0.000000 0.000000 
					CHANNELS 3 Zrotation Yrotation Xrotation
					JOINT rForeArm
					{
						OFFSET -10.139888 0.000000 0.000000 
						CHANNELS 3 Yrotation Zrotation Xrotation
						JOINT rHand
						{
							OFFSET -8.370511 0.000000 0.000000 
							CHANNELS 3 Zrotation Yrotation Xrotation
							End Site
							{
								OFFSET -4.083176 0.000000 0.000000 
							}
						}
					}
				}
			}
		}
	}
	JOINT lThigh
	{
		OFFSET 5.308129 -1.633274 1.361059 
		CHANNELS 3 Xrotation Zrotation Yrotation
		JOINT lShin
		{
			OFFSET -2.041588 -20.007561 0.000000 
			CHANNELS 3 Xrotation Zrotation Yrotation
			JOINT lFoot
			{
				OFFSET 0.000000 -19.190928 -1.224953 
				CHANNELS 3 Xrotation Yrotation Zrotation
				End Site
				{
					OFFSET 0.000000 -2.449906 4.627600 
				}
			}
		}
	}
	JOINT rThigh
	{
		OFFSET -5.308129 -1.633274 1.361059 
		CHANNELS 3 Xrotation Zrotation Yrotation
		JOINT rShin
		{
			OFFSET 2.041588 -20.007561 0.000000 
			CHANNELS 3 Xrotation Zrotation Yrotation
			JOINT rFoot
			{
				OFFSET 0.000000 -19.190928 -1.224953 
				CHANNELS 3 Xrotation Yrotation Zrotation
				End Site
				{
					OFFSET 0.000000 -2.449906 4.627600 
				}
			}
		}
	}
}
MOTION
Frames: 6
Frame Time: 0.016667
-1.805085 45.609081 -3.977212 6.205990 2.252360 -7.088930 -21.890400 1.163840 -2.235080 18.198601 3.532170 -0.906798 17.035500 6.247930 -9.185730 14.803100 6.982280 -4.354310 2.000000 -2.000000 0.000000 -90.131104 1.870440 152.485992 27.802999 -0.335782 0.063829 0.044723 -0.005387 -138.845993 -2.000000 2.000000 0.000000 85.993401 -0.275883 168.671005 -29.814800 0.333469 0.067978 -0.058459 -0.026108 -124.001999 -8.660357 -4.290526 -3.366374 17.904419 2.535739 1.510821 -8.615571 19.482124 3.909156 -16.711782 1.019258 6.911556 27.928625 -2.535369 -2.199436 -13.572606 -0.775264 -0.973246 
-1.649058 45.620430 -4.018890 6.177130 2.359280 -7.019930 -21.851400 1.123640 -2.175520 18.237801 3.532270 -0.884860 17.136900 6.287430 -9.182900 14.852500 6.990630 -4.356320 2.000000 -2.000000 0.000000 -90.072601 1.890140 152.563995 27.842100 -0.335738 0.063911 0.044732 -0.005633 -138.932999 -2.000000 2.000000 0.000000 85.895699 -0.334020 168.475998 -29.756201 0.333538 0.067857 -0.058428 -0.025975 -124.051003 -8.613398 -4.523118 -3.172732 17.644415 2.490739 1.508770 -8.293160 19.218048 3.797192 -16.817108 0.767080 7.022337 28.142807 -2.557285 -2.210603 -13.722747 -0.852835 -1.015537 
-1.494155 45.626621 -4.066195 6.118710 2.408090 -6.890190 -21.723499 1.057000 -2.186680 18.355200 3.513040 -0.896424 17.154800 6.278170 -9.162750 14.881600 6.970710 -4.336870 2.000000 -2.000000 0.000000 -89.965103 1.733810 152.526001 27.754200 -0.335836 0.063726 0.044736 -0.005742 -138.973007 -2.000000 2.000000 0.000000 85.866302 -0.167662 168.330002 -29.648800 0.333665 0.067634 -0.058440 -0.026028 -124.030998 -8.622663 -4.700902 -2.858185 17.569437 2.465123 1.516590 -8.107086 18.801846 3.661536 -16.872274 0.551719 7.066378 28.240271 -2.563862 -2.210452 -13.751294 -1.073499 -1.109570 
-1.339228 45.632675 -4.113502 6.070100 2.466580 -6.759090 -21.595800 0.993675 -2.188940 18.462900 3.484010 -0.908306 17.163200 6.278790 -9.141530 14.910600 6.950780 -4.307680 2.000000 -2.000000 0.000000 -89.847900 1.577500 152.496994 27.676100 -0.335923 0.063561 0.044739 -0.005824 -139.001999 -2.000000 2.000000 0.000000 85.827202 0.008484 168.173996 -29.541300 0.333792 0.067411 -0.058459 -0.026108 -124.001999 -8.665796 -4.875877 -2.528895 17.502485 2.450068 1.515645 -7.867159 18.390219 3.540235 -16.905735 0.340531 7.121520 28.328651 -2.566448 -2.219257 -13.806126 -1.302649 -1.175642 
-1.184888 45.620308 -4.171310 6.040770 2.466710 -6.652930 -21.625200 0.972974 -2.160660 18.365101 3.474030 -0.904103 17.123699 6.310140 -9.120610 14.872200 6.990140 -4.305110 2.000000 -2.000000 0.000000 -89.769897 1.646120 152.623993 27.705400 -0.335890 0.063623 0.044743 -0.005933 -139.041000 -2.000000 2.000000 0.000000 85.758698 -0.147310 167.977997 -29.521799 0.333815 0.067370 -0.058538 -0.026454 -123.875000 -8.690036 -4.968190 -2.223344 17.389584 2.410267 1.512016 -7.832900 17.925373 3.466989 -16.984499 0.171638 7.179370 28.415436 -2.578832 -2.211077 -13.811645 -1.418329 -1.225559 
-1.030542 45.608047 -4.229131 6.011500 2.476560 -6.545750 -21.644800 0.952386 -2.132100 18.267300 3.454280 -0.899477 17.083799 6.351410 -9.087150 14.824000 7.029740 -4.303790 2.000000 -2.000000 0.000000 -89.682098 1.724500 152.740997 27.744400 -0.335847 0.063705 0.044747 -0.006043 -139.080002 -2.000000 2.000000 0.000000 85.690300 -0.293315 167.772995 -29.502300 0.333838 0.067330 -0.058619 -0.026801 -123.748001 -8.782308 -5.079172 -1.889220 17.450768 2.400716 1.529030 -7.867206 17.434708 3.347932 -17.100599 0.029278 7.241867 28.561392 -2.591582 -2.211627 -13.777414 -1.521342 -1.289763 
